<svg class="icon" style="width: 200; height: 200;vertical-align: middle;fill: currentColor;overflow: hidden;" viewBox="0 0 1024 1024" version="1.1" xmlns="http://www.w3.org/2000/svg" p-id="5752"><path d="M959.36 928c0-35.344-28.616-64-63.904-64l-31.96 0L863.496 400l95.864 0c28.656 0 53.816-19.096 61.52-46.752 7.744-27.632-3.864-57.056-28.352-71.96l-447.352-272C534.968 3.088 523.496 0 512.008 0s-22.984 3.088-33.168 9.296l-447.352 272c-24.496 14.904-36.104 44.328-28.368 71.96C10.84 380.904 35.992 400 64.656 400l95.856 0 0 464L128.56 864c-35.296 0-63.904 28.656-63.904 64-35.296 0-63.904 28.664-63.904 64l0 32 1022.504 0 0-32C1023.256 956.664 994.648 928 959.36 928M831.536 864l-63.904 0L767.632 400l63.904 0L831.536 864zM288.336 400l63.904 0 0 464-63.904 0L288.336 400zM384.192 400l63.904 0 0 464-63.904 0L384.192 400zM480.048 400l63.912 0 0 464-63.912 0L480.048 400zM575.912 400l63.904 0 0 464-63.904 0L575.912 400zM671.776 400l63.904 0 0 464-63.904 0L671.776 400zM64.656 368c-14.264 0-26.936-9.608-30.768-23.392-3.856-13.744 1.984-28.544 14.176-35.952L495.44 36.64C500.424 33.6 506.16 32 512.008 32s11.576 1.6 16.576 4.656l447.352 272c12.2 7.408 18.04 22.208 14.184 35.968C986.264 358.392 973.616 368 959.36 368L64.656 368zM192.472 400l63.912 0 0 464-63.912 0L192.472 400zM128.56 896l766.888 0c17.624 0 31.952 14.344 31.952 32L96.608 928C96.608 910.344 110.936 896 128.56 896M32.704 992c0-17.656 14.32-32 31.952-32L959.36 960c17.624 0 31.952 14.344 31.952 32L32.704 992z" p-id="5753" fill="#d81e06"></path><path d="M510.272 145.28c-44.128 0-79.888 35.76-79.888 79.88 0 44.128 35.76 79.88 79.888 79.88s79.872-35.752 79.872-79.88C590.152 181.04 554.4 145.28 510.272 145.28M510.272 273.088c-26.48 0-47.936-21.456-47.936-47.928s21.456-47.928 47.936-47.928 47.92 21.456 47.92 47.928S536.752 273.088 510.272 273.088" p-id="5754" fill="#d81e06"></path></svg>