<svg class="icon" style="width: 200; height: 200;vertical-align: middle;fill: currentColor;overflow: hidden;" viewBox="0 0 1024 1024" version="1.1" xmlns="http://www.w3.org/2000/svg" p-id="1527"><path d="M952.584484 707.724707 824.61595 136.02707c0.890276-2.14178 1.172709-4.28049 0.751107-6.352685-2.285043-11.228739-24.261567-16.235776-49.086975-11.183713-24.825408 5.052063-43.097564 18.249643-40.812521 29.477358 0.313132 1.538029 1.007957 2.955308 2.016937 4.250814l24.515347 81.721233c-67.746964 23.52581-177.916109 65.760726-265.062911 57.217143-202.399733-19.84293-298.80848 67.592444-319.345212 88.768743l-24.802896-83.134419-0.069585 0.014326c-0.032746-0.382717-0.082888-0.763386-0.159636-1.14201-2.285043-11.228739-23.574928-16.374946-47.552016-11.495822-23.977088 4.879124-41.562605 17.937534-39.278585 29.16525 0.076748 0.378623 0.180102 0.74906 0.299829 1.11438l-0.069585 0.014326 129.173988 577.618487c-0.585331 1.803066-0.728594 3.595898-0.373507 5.341658 2.285043 11.228739 24.261567 16.234753 49.086975 11.183713 24.825408-5.052063 43.097564-18.249643 40.812521-29.477358-0.38681-1.90028-1.348718-3.617387-2.781346-5.142114l-19.287275-76.374458c113.934912-82.379219 205.298759-120.243595 316.460512-116.260887 164.984588 5.91164 252.534574-24.696472 267.560802-31.630395l19.4991 77.412091c-0.385786 1.531889-0.453325 3.053546-0.150426 4.539386 2.285043 11.228739 24.261567 16.235776 49.086975 11.183713 24.825408-5.052063 43.097564-18.249643 40.812521-29.477358C955.426205 711.264323 954.297498 709.37223 952.584484 707.724707zM627.504664 454.304973c5.745864 5.204535 5.243421 8.742105-1.155313 12.125155-8.149611 4.308119-15.312754 9.956769-21.922289 16.374946-1.471514 1.428535-4.102435 2.448772-2.709715 4.89652 0.63752 1.121544 3.099594 1.581008 4.755304 1.666966 4.224208 0.217964 8.473999-0.207731 12.688997 0.099261 11.56336 0.842181 20.928658 6.615675 28.92989 14.751982 2.76088 2.806929 4.593622 6.641257 4.066619 10.82351-2.373047 18.838044 0.382717 37.983079-2.464121 56.798611-1.560542 10.314926-3.536546 20.50501-8.463766 29.689183-6.544043 12.195763-14.245446 12.924357-24.721031 4.27435-9.816576-8.105608-20.330024-15.350616-29.691229-25.13547-3.475148 8.403391-6.230911 16.017812-9.738805 23.24747-2.747577 5.66093-5.164626 11.9471-11.248182 14.983249-3.730974 1.862417-8.253988 6.77838-11.710716 0.26913-2.451842-4.618181-9.494235-9.484002-1.807159-15.71082 3.341095-2.706645 4.349051-7.194866 5.558599-11.330046 7.9296-27.130917 10.576893-55.202253 13.909801-84.318384-7.726985 3.584642-9.458419 10.553357-12.846586 15.934924-8.633634 13.715373-18.345834 25.873274-34.30941 31.508621-8.023744 2.832512-14.680351 1.260713-17.740036-6.609535-4.169973-10.727319-12.634762-15.781428-22.026666-20.764929-5.15644 34.089399 16.857946 58.473763 30.957059 85.488023 5.309936 10.17371 12.554944 19.332301 18.787902 29.037337 1.660826 2.586918 4.888334 5.570879 2.163269 8.590656-2.829442 3.134387-6.658653 4.492314-11.43954 2.718925-15.162328-5.626137-26.003234-16.194844-33.867342-30.043247-6.730285-11.851932-12.896728-24.02416-19.887956-37.132712-5.41329 9.616008-7.247054 20.230764-16.97972 25.717731-6.479575 3.653203-11.618619 3.5038-17.46272-1.139963-6.604418-5.248537-11.887748-11.334139-15.515369-19.029402-1.888-4.00522-2.479471-8.586562 0.239454-11.1919 13.71742-13.136182 12.310374-32.066323 18.199501-48.160883 1.947352-5.322216 1.224898-9.709129-3.613294-14.741749-12.387122 33.642215-33.523511 38.161135-64.9912 24.27794l-16.310477-11.70253c-5.301749-6.936993-2.703575-9.338692 4.340865-11.17348 13.263072-3.456728 20.85498-14.029528 26.064632-26.110681 6.471388-15.007809 11.945053-30.497595 20.268626-44.586474 2.585895-4.376681 0.812505-8.40646-0.232291-12.319583-2.032286-7.608282-4.677533-15.07637-7.371898-22.493294-1.892093-5.208629-4.181229-10.027377-11.359722-8.782014-7.758708 1.346671-7.785314-6.17463-9.970072-10.386558-2.305509-4.445242 1.270946-6.973832 5.002944-8.972349 19.325138-10.350742 47.266513 1.779529 53.327556 23.385617 2.047636 7.300266 4.170996 12.69616 12.973476 15.85613 18.11559 6.503111 21.784142 16.71673 12.477172 33.002648-8.251941 14.439874-8.442276 22.073738 6.912433 35.674501 2.613524 2.315742 4.811586 5.114484 7.752568 8.283664 0.363274-8.157797 0.665149-15.598256 1.032516-23.032576 0.977257-19.774369 2.569522-21.307282 21.848611-21.161972 0.017396-2.831488-2.218528-4.213975-3.781116-6.056949-11.509125-13.573133-11.859096-18.151405-3.062755-33.283034 2.400676-4.130064 5.248537-8.18952 5.273097-13.421684-0.760317-0.039909-1.248434-0.218988-1.435699-0.053212-6.03853 5.379521-10.550287 14.231119-20.86112 10.592242-8.729825-3.080152-21.903869-22.561855-22.292726-31.546483-0.164752-3.790326 0.270153-7.568373 3.094478-9.847276 8.446369-6.816243 9.993608-16.8559 12.383028-26.497491 1.470491-5.931083 4.510734-11.794627-3.895727-16.460904-4.944616-2.744507-3.284813-7.990998 0.982374-11.501962 11.57871-9.524934 42.805922-6.14086 47.693232 7.628748 4.142343 11.67183 11.000542 13.348006 20.053732 16.675798 13.109576 4.819772 16.204054 13.70207 11.660574 27.561729-0.998747 3.046383-2.514263 5.107321 1.954515 7.601118 15.489786 8.645914 15.33629 8.93551 18.318204 25.25622 9.733689-6.021134 19.580964-11.103896 30.91715-13.170974 14.817474-2.701528 25.453718 3.981684 34.249035 14.830777 5.505387 6.79066 2.7793 14.922874-6.378268 20.290115-7.958252 4.66423-14.906501 10.301623-21.328771 19.303648C612.608396 444.239733 620.409059 447.877587 627.504664 454.304973z" p-id="1528" fill="#d81e06"></path><path d="M597.733617 532.032242c-0.315178 7.79043-2.826372 15.432481-4.121877 23.186072-0.695848 4.167926-4.123924 8.601912 1.90335 12.259208 6.04774 3.669576 11.946077 6.245238 18.808368 3.51915 3.338025-1.541099 4.650927-4.451382 5.207605-7.717775 2.232854-13.101389 2.249227-26.320459 0.805342-39.559994-0.560772-5.142114-2.788509-6.187933-8.565073-5.944386C601.632413 518.202259 598.131683 522.17985 597.733617 532.032242z" p-id="1529" fill="#d81e06"></path><path d="M533.847587 478.957443c-15.805988 7.566326-25.848715 27.089985-23.339568 46.269813 11.704576-12.673647 23.641443-24.362874 29.743418-40.542368 0.806365-2.137687 2.27481-4.907777 0.12382-7.001461C537.941835 475.315496 535.852244 477.997582 533.847587 478.957443z" p-id="1530" fill="#d81e06"></path><path d="M558.664809 451.368084c1.691525 0.880043 3.403516 1.113357 4.923126-0.152473 12.661368-10.55745 22.395056-23.312962 28.250414-39.098483-14.053064 9.370415-22.596647 23.968901-34.05256 35.71748C556.853557 448.790376 556.997843 450.501344 558.664809 451.368084z" p-id="1531" fill="#d81e06"></path><path d="M501.524414 467.723587c-5.161556 0.618077-7.042393 3.353374-6.704702 9.731642C498.349095 474.204186 501.559207 472.54336 501.524414 467.723587z" p-id="1532" fill="#d81e06"></path></svg>