<?xml version="1.0" standalone="no"?><!DOCTYPE svg PUBLIC "-//W3C//DTD SVG 1.1//EN" "http://www.w3.org/Graphics/SVG/1.1/DTD/svg11.dtd"><svg width="128" height="128" viewBox="0 0 128 128" version="1.1" xmlns="http://www.w3.org/2000/svg" xmlns:xlink="http://www.w3.org/1999/xlink"><defs><style type="text/css"><![CDATA[
@font-face { font-family: ifont; src: url("//at.alicdn.com/t/font_1442373896_4754455.eot?#iefix") format("embedded-opentype"), url("//at.alicdn.com/t/font_1442373896_4754455.woff") format("woff"), url("//at.alicdn.com/t/font_1442373896_4754455.ttf") format("truetype"), url("//at.alicdn.com/t/font_1442373896_4754455.svg#ifont") format("svg"); }

]]></style></defs><g class="transform-group"><g transform="scale(0.125, 0.125)"><path d="M946 872.4 946 873.2 946 873.2ZM573.2 114.8c1.2 0.8 2.4 1.2 4 1.2l2.8 0c0.8 0 1.6 0 2 0l396.8 0c0.4 0 0.8 0 1.2 0 0.4 0 0.8 0 1.2 0l2.4 0c1.2 0 2.4-0.4 3.6-1.2 19.2-3.2 33.6-20 33.6-39.2 0-19.2-14-35.6-32.8-39.2-1.2-0.8-2.8-1.6-4.4-1.6L577.2 34.8c-1.6 0-2.8 0.8-4 1.6-18.8 4-32.4 20-32.4 39.2C540.8 94.8 554.4 110.8 573.2 114.8zM577.2 416.8l406.4 0c1.6 0 2.8-0.8 4-1.6 19.2-3.6 33.2-20 33.2-39.2 0-19.6-14.4-36-33.6-39.2-1.2-0.8-2.4-0.8-3.6-0.8l-1.2 0c-0.8-0.4-2.4-0.4-3.6 0l-395.2 0c-0.8-0.4-2.4-0.4-3.6 0l-2.4 0c-1.2 0-2.4 0.4-3.6 1.2-18.8 3.6-32.8 20-32.8 39.2 0 18.8 13.6 34.8 32 38.8C573.6 416.4 575.6 416.8 577.2 416.8zM985.6 721.2c21.2-0.8 38.4-18.8 38.4-40.4 0-22.4-18-40.4-40.4-40.4-0.4 0-0.8 0-1.2 0l-400 0c-0.8 0-1.6 0-2 0l-2.8 0c-1.2 0-2.4 0.4-3.6 1.2-18.8 3.6-32.8 20-32.8 39.2 0 18.8 13.6 34.8 32 38.8 1.2 1.2 2.8 1.6 4.4 1.6l406.4 0C984 721.2 984.8 721.2 985.6 721.2zM986 908c-0.8-0.4-1.6-0.4-2.8-0.4L577.2 907.6c-1.6 0-3.2 0.8-4 2-18.8 4-32.4 20-32.4 39.2 0 19.2 14 35.6 32.8 39.2 1.2 0.8 2.4 0.8 3.6 0.8l1.2 0c0.4 0 1.2 0.4 4.4 0l398 0c0.8 0 2 0.4 2.8 0.4 22.4 0 40.4-18 40.4-40.4C1024 927.2 1007.2 909.6 986 908zM326.8 29.6 70 29.6C31.6 29.6 0 61.2 0 99.6l0 256.8c0 38.8 31.6 70 70 70l256.8 0c38.4 0 70-31.2 70-70L396.8 99.6C396.8 61.2 365.2 29.6 326.8 29.6zM330 356.4c0 1.6-1.6 3.2-3.2 3.2L70 359.6c-1.6 0-3.2-1.6-3.2-3.2L66.8 99.6c0-2 1.6-3.2 3.2-3.2l256.8 0c2 0 3.2 1.6 3.2 3.2L330 356.4zM324.4 605.2l-252 0c-38 0-68.8 30.8-68.8 68.8l0 252c0 38 30.8 68.8 68.8 68.8l252 0c38 0 68.8-30.8 68.8-68.8l0-252C392.8 636 362 605.2 324.4 605.2zM327.6 925.6c0 1.6-1.6 3.2-3.2 3.2l-252 0c-1.6 0-3.2-1.6-3.2-3.2l0-252c0-1.6 1.6-3.2 3.2-3.2l252 0c1.6 0 3.2 1.6 3.2 3.2L327.6 925.6z" fill="#272636"></path></g></g></svg>