<?xml version="1.0" standalone="no"?><!DOCTYPE svg PUBLIC "-//W3C//DTD SVG 1.1//EN" "http://www.w3.org/Graphics/SVG/1.1/DTD/svg11.dtd"><svg class="icon" style="" viewBox="0 0 1024 1024" version="1.1" xmlns="http://www.w3.org/2000/svg" p-id="1061" xmlns:xlink="http://www.w3.org/1999/xlink" width="200" height="200"><defs><style type="text/css"><![CDATA[

]]></style></defs><path d="M5.408 1020.394c0 0-5.408-5.408-5.408-5.408s0-638.196 0-638.196c0 0 373.183-373.183 373.183-373.183 0 0 649.014 0 649.014 0 0 0-1016.789 1016.789-1016.789 1016.789zM640.346 314.613c4.429-6.721 7.428-12.548 9.029-17.509 1.586-4.948 1.933-9.274 1.053-12.995-0.88-3.707-2.827-7.067-5.827-10.067 0 0-42.965-42.965-42.965-42.965 12.735-12.36 23.826-23.018 33.287-31.946 9.447-8.928 18.071-16.918 25.845-23.999 0 0-19.355-19.355-19.355-19.355-6.894 7.961-14.798 16.759-23.725 26.379-8.928 9.649-19.498 20.74-31.686 33.287 0 0-6.894-6.894-6.894-6.894 0 0 10.601-42.431 10.601-42.431 0.88-3.707 2.568-8.206 5.033-13.514 2.481-5.307 5.134-10.615 7.961-15.922 0 0-19.355-19.355-19.355-19.355-3.894 5.307-10.788 13.269-20.681 23.869-9.908 10.615-22.63 23.696-38.191 39.244-15.546 15.562-28.629 28.456-39.244 38.71-10.601 10.254-18.562 17.321-23.855 21.216 0 0 19.355 19.355 19.355 19.355 1.947-2.293 4.413-5.12 7.428-8.48 3-3.36 6.144-6.851 9.403-10.485 3.274-3.62 6.418-7.009 9.418-10.197 3-3.187 5.481-5.74 7.428-7.687 0 0 50.912-50.912 50.912-50.912 0 0-12.735 51.431-12.735 51.431 0 0 12.735 12.735 12.735 12.735-14.322 14.322-26.653 26.292-36.994 35.927-10.341 9.634-19.672 17.898-27.98 24.792 0 0 19.355 19.355 19.355 19.355 7.068-8.134 15.475-17.321 25.196-27.576 9.721-10.254 21.748-22.542 36.056-36.864 0 0 31.816 31.831 31.816 31.831 2.135 2.12 3.404 4.197 3.851 6.231 0.447 2.019-0.129 4.457-1.716 7.282-1.601 2.827-4.471 6.331-8.625 10.471-4.154 4.168-9.764 9.245-16.831 15.259 7.413 2.12 13.6 4.413 18.562 6.894 4.947 2.466 9.62 5.38 14.048 8.741 7.774-9.187 13.874-17.148 18.289-23.855zM43.224 443.738c-2.827 3.188-6.634 6.807-11.408 10.875-4.759 4.067-9.36 7.775-13.789 11.134 4.601 3.187 11.754 9.187 21.49 18.028 9.721 8.841 21.735 20.423 36.056 34.744-6.549 6.533-12.461 12.187-17.769 16.961-5.307 4.774-10.066 8.928-14.322 12.461 0 0 20.956 20.956 20.956 20.956 3.36-4.067 7.456-8.798 12.331-14.192 4.86-5.395 10.557-11.35 17.091-17.898 0 0 52.772 52.772 52.772 52.772-4.241 8.134-8.48 15.908-12.721 23.336-4.255 7.413-8.408 14.221-12.475 20.408 5.134 3.014 10.528 6.186 16.182 9.548 5.654 3.36 11.134 6.981 16.442 10.875 1.586-7.24 3.49-14.451 5.696-21.619 2.207-7.154 4.644-14.523 7.298-22.139 0 0 47.465 47.465 47.465 47.465 6.187 6.187 8.394 12.375 6.62 18.562-1.76 6.186-8.841 14.235-21.216 24.129 8.48 1.413 15.288 3.274 20.422 5.567 5.119 2.308 10.067 5.134 14.855 8.48 7.24-9.721 12.85-17.711 16.831-23.985 3.966-6.288 6.447-11.668 7.428-16.182 0.966-4.5 0.476-8.61-1.457-12.331-1.947-3.707-5.307-7.947-10.081-12.721 0 0-68.94-68.94-68.94-68.94 2.466-5.654 4.948-11.221 7.428-16.701 2.481-5.481 5.032-10.961 7.687-16.442-3.534-1.773-7.11-4.197-10.744-7.298-3.62-3.086-6.937-6.49-9.937-10.211-1.586 4.429-3.49 9.331-5.697 14.725-2.221 5.395-4.644 11.177-7.298 17.364 0 0-45.604-45.604-45.604-45.604 5.481-5.134 10.471-9.764 14.985-13.931 4.5-4.139 8.61-7.73 12.317-10.73 0 0-20.942-20.942-20.942-20.942-3 3.707-6.577 7.817-10.73 12.317-4.168 4.514-8.798 9.504-13.931 14.985 0 0-37.124-37.124-37.124-37.124-4.586-4.586-6.807-9.101-6.62-13.514 0.173-5.134-0.447-7.961-1.861-8.495-1.413-0.519-3.981 1.254-7.687 5.307zM146.374 355.443c8.654 0.534 17.091 1.644 25.312 3.317s15.778 4.024 22.672 7.024c0 0 9.822-34.744 9.822-34.744-9.202-1.053-18.086-2.336-26.653-3.836-8.581-1.5-16.124-3.043-22.672-4.644 0 0-8.48 32.883-8.48 32.883zM252.567 317.123c-2.034 2.394-5.091 5.711-9.158 9.952-4.053 4.24-9.49 9.851-16.297 16.831-6.807 6.981-15.778 16.038-26.912 27.186 0 0-48.791 48.777-48.791 48.777-3.534-9.187-6.317-16.557-8.351-22.14-2.034-5.567-3.577-10.024-4.644-13.384-1.053-3.359-1.673-5.928-1.86-7.687-0.173-1.774-0.087-3.359 0.274-4.774 1.76-10.602-0.894-12.908-7.961-6.894-3.36 2.654-8.12 5.394-14.322 8.221-6.173 2.827-12.101 5.481-17.754 7.946 4.241 6.014 7.99 11.538 11.264 16.571 3.275 5.048 6.404 10.038 9.419 14.985 3 4.947 5.827 10.081 8.48 15.374 2.654 5.307 5.395 10.961 8.221 16.975 6.549 15.028 11.091 28.513 13.658 40.441 2.567 11.927 3.835 24.432 3.836 37.513 9.187-4.947 18.922-7.413 29.177-7.428-0.894-5.12-1.947-10.327-3.187-15.633-1.24-5.307-2.654-10.702-4.241-16.182 0 0 90.949 90.949 90.949 90.949 7.067 7.067 13.212 13.312 18.432 18.692 5.207 5.394 9.895 10.442 14.048 15.114 4.154 4.687 7.947 9.101 11.408 13.254 3.433 4.168 6.836 8.452 10.196 12.865 0 0 22.802-22.802 22.802-22.802 0 0-21.2-21.216-21.2-21.216 0 0 57.806-57.806 57.806-57.806 10.601-10.601 19.211-19.225 25.845-25.845 6.634-6.634 12.101-11.942 16.442-15.908 4.327-3.981 7.73-7.024 10.211-9.158 2.466-2.12 4.759-4.053 6.894-5.827 0 0-21.749-21.749-21.749-21.749-1.413 2.135-3.173 4.428-5.293 6.894-2.135 2.481-5.134 5.755-9.029 9.822-3.88 4.067-9.013 9.36-15.374 15.908-6.36 6.548-14.581 14.841-24.663 24.922 0 0-31.023-31.023-31.023-31.023 7.428-7.428 13.442-13.427 18.028-18.028 4.601-4.601 8.407-8.307 11.408-11.134 3.014-2.827 5.524-5.091 7.557-6.763 2.034-1.687 3.937-3.231 5.697-4.644 0 0-21.216-21.216-21.216-21.216-1.399 1.774-2.913 3.634-4.5 5.566-1.586 1.947-3.852 4.471-6.763 7.557-2.913 3.101-6.634 6.995-11.133 11.668-4.514 4.687-10.471 10.745-17.898 18.172 0 0-32.883-32.883-32.883-32.883 7.255-7.255 13.168-13.081 17.769-17.509 4.601-4.413 8.394-8.033 11.408-10.86 3-2.827 5.524-5.077 7.557-6.763 2.034-1.673 3.923-3.231 5.697-4.644 0 0-21.475-21.475-21.475-21.475-1.414 1.774-2.928 3.634-4.513 5.567-1.586 1.947-3.793 4.428-6.62 7.427-2.827 3-6.505 6.851-11.004 11.539-4.514 4.687-10.399 10.644-17.639 17.898 0 0-30.23-30.23-30.23-30.23 9.014-9.014 16.312-16.312 21.879-21.879 5.567-5.567 10.125-10.037 13.658-13.384 3.534-3.36 6.36-5.928 8.48-7.702 2.121-1.76 4.154-3.433 6.101-5.033 0 0-21.475-21.475-21.475-21.475-1.601 1.947-3.404 4.11-5.437 6.491zM356.366 310.892c6.721-8.12 15.879-18.331 27.446-30.619 11.581-12.288 23.739-24.965 36.46-38.047 2.654 12.908 4.341 25.802 5.033 38.71 0.721 12.908 0.635 25.542-0.26 37.917-0.88 12.375-2.437 24.432-4.644 36.186-2.208 11.769-4.716 22.946-7.557 33.547 5.841 0.187 11.538 0.923 17.105 2.25 5.567 1.327 11.177 2.885 16.846 4.644 3.707-23.869 5.827-47.378 6.36-70.526 0 0 57.272 57.272 57.272 57.272 5.654 5.654 10.86 11.048 15.648 16.168 4.759 5.134 9.721 10.788 14.841 16.975 0 0 24.403-24.403 24.403-24.403-6.202-5.12-11.855-10.067-16.975-14.841-5.134-4.774-10.514-9.995-16.168-15.648 0 0-79.555-79.54-79.555-79.54-0.534-11.495-1.5-22.542-2.913-33.143-1.413-10.601-3.086-20.595-5.033-29.97 0 0 50.104-50.118 50.104-50.118 7.067-7.067 14.235-14.134 21.475-21.2 7.255-7.067 14.278-13.831 21.086-20.293 6.807-6.447 13.211-12.317 19.225-17.624 6.014-5.307 11.307-9.908 15.908-13.788 0 0-20.422-20.422-20.422-20.422-3.88 4.601-8.524 9.851-13.918 15.778-5.394 5.928-11.307 12.288-17.769 19.095-6.447 6.807-13.212 13.831-20.278 21.071-7.067 7.255-14.149 14.408-21.216 21.475 0 0-40.83 40.845-40.83 40.845-1.414-5.307-2.163-9.418-2.25-12.331-0.087-2.913 0.477-6.231 1.716-9.953 0.88-2.639 0.837-4.283-0.13-4.904-0.981-0.62-2.785 0.058-5.437 1.991-4.067 2.654-8.567 5.307-13.528 7.961-4.947 2.654-10.601 5.394-16.961 8.221 2.12 4.24 4.197 9.057 6.231 14.45 2.034 5.394 4.11 11.625 6.231 18.692 0 0-0.26 0.26-0.26 0.26-14.509 14.495-28.73 28.369-42.691 41.623-13.975 13.269-25.643 23.869-35.003 31.831 0 0 20.408 20.408 20.408 20.408zM475.698 53.435c-10.442 10.961-22.196 22.975-35.278 36.056 0 0-15.115-15.115-15.115-15.115-0.88-0.88-1.716-2.163-2.51-3.851-0.793-1.673-0.937-3.649-0.404-5.957 0.707-2.827 0.577-4.47-0.389-4.904-0.981-0.447-2.437 0.303-4.384 2.25-3.173 3.534-6.937 7.298-11.264 11.264-4.327 3.981-8.437 7.572-12.331 10.745 3.014 1.947 5.654 3.893 7.961 5.827 2.293 1.947 4.86 4.341 7.687 7.168 0 0 11.668 11.668 11.668 11.668 0 0-55.427 55.411-55.427 55.411 0 0-13.788-13.788-13.788-13.788-0.88-0.88-1.716-2.163-2.51-3.851-0.808-1.673-0.937-3.649-0.404-5.957 0.707-2.827 0.577-4.47-0.404-4.904-0.966-0.447-2.423 0.303-4.37 2.25-3.187 3.533-6.937 7.298-11.264 11.264-4.327 3.981-8.437 7.572-12.331 10.745 3 1.947 5.654 3.893 7.947 5.827 2.308 1.947 4.876 4.341 7.703 7.168 0 0 10.341 10.341 10.341 10.341-12.201 12.187-23.523 23.249-33.951 33.144-10.427 9.894-19.889 18.216-28.368 24.922 0 0 20.682 20.682 20.682 20.682 6.721-8.134 15.028-17.495 24.922-28.11 9.908-10.601 20.869-22.095 32.883-34.47 3.014 3.014 5.74 5.928 8.221 8.754 2.466 2.827 4.774 5.654 6.894 8.48 0 0 20.682-20.682 20.682-20.682-3.187-2.466-6.143-5.077-8.883-7.817-2.74-2.74-5.336-5.351-7.817-7.817 0 0 55.411-55.427 55.411-55.427 3.187 3.187 6.317 6.505 9.418 9.953 3.087 3.447 5.87 6.764 8.352 9.937 0 0 20.682-20.682 20.682-20.682-3.36-2.654-6.36-5.307-9.014-7.961-2.654-2.639-6.102-6.086-10.341-10.341 13.081-13.067 25.138-24.778 36.186-35.133 11.048-10.327 20.999-19.037 29.84-26.105 0 0-20.682-20.682-20.682-20.682-7.068 8.841-15.822 18.735-26.249 29.696zM199.666 470.262c0 0-30.23-30.23-30.23-30.23s38.71-38.725 38.71-38.725c0 0 30.23 30.23 30.23 30.23 0 0-38.71 38.725-38.71 38.725zM290.080 483.241c0 0-38.71 38.725-38.71 38.725s-32.883-32.883-32.883-32.883c0 0 38.71-38.71 38.71-38.71 0 0 32.883 32.869 32.883 32.869zM339.939 533.099c0 0-38.725 38.71-38.725 38.71s-31.023-31.023-31.023-31.023c0 0 38.725-38.71 38.725-38.71 0 0 31.023 31.023 31.023 31.023z" p-id="1062"></path></svg>